<svg width="20" height="21" viewBox="0 0 20 21" fill="none" xmlns="http://www.w3.org/2000/svg">
<g id="Google Icon" clip-path="url(#clip0_1007_2820)">
<path id="Vector" d="M19.8052 10.7305C19.8052 10.0507 19.7501 9.36724 19.6325 8.69849H10.2002V12.5493H15.6016C15.3775 13.7913 14.6573 14.8899 13.6027 15.5881V18.0867H16.8252C18.7176 16.345 19.8052 13.7729 19.8052 10.7305Z" fill="#4285F4"/>
<path id="Vector_2" d="M10.1999 20.5008C12.897 20.5008 15.1714 19.6152 16.8286 18.0867L13.6061 15.588C12.7096 16.198 11.5521 16.5434 10.2036 16.5434C7.59474 16.5434 5.38272 14.7833 4.58904 12.417H1.26367V14.9928C2.96127 18.3696 6.41892 20.5008 10.1999 20.5008Z" fill="#34A853"/>
<path id="Vector_3" d="M4.58564 12.417C4.16676 11.175 4.16676 9.8302 4.58564 8.58824V6.01245H1.26395C-0.154389 8.8381 -0.154389 12.1671 1.26395 14.9928L4.58564 12.417Z" fill="#FFA509"/>
<path id="Vector_4" d="M10.1999 4.45805C11.6256 4.436 13.0035 4.97247 14.036 5.95722L16.8911 3.10218C15.0833 1.40459 12.6838 0.471278 10.1999 0.500674C6.41892 0.500674 2.96126 2.63185 1.26367 6.01234L4.58537 8.58813C5.37537 6.21811 7.59106 4.45805 10.1999 4.45805Z" fill="#EA4335"/>
</g>
<defs>
<clipPath id="clip0_1007_2820">
<rect width="20" height="20" fill="white" transform="translate(0 0.5)"/>
</clipPath>
</defs>
</svg>
