<svg width="151" height="51" viewBox="0 0 151 51" fill="none" xmlns="http://www.w3.org/2000/svg">
<path d="M151 43.9939C148.696 43.9939 146.648 43.8307 144.64 44.0394C142.521 44.2595 141.326 43.4798 140.228 41.7021C137.966 38.0407 135.43 34.5442 133.005 30.9814C132.814 30.7006 132.603 30.4293 132.236 29.9266C132.202 30.5166 132.167 30.8429 132.167 31.1711C132.164 35.0603 132.139 38.9494 132.183 42.8366C132.192 43.7435 131.932 44.0451 131.003 44.0129C129.062 43.9465 127.115 43.9616 125.172 44.0072C124.413 44.0261 124.187 43.7719 124.193 43.0358C124.222 39.0841 124.206 35.1323 124.203 31.1806C124.203 30.8505 124.172 30.5223 123.958 30.141C123.761 30.4142 123.558 30.6817 123.371 30.9586C120.592 35.047 117.806 39.1296 115.05 43.235C114.669 43.8023 114.253 44.0185 113.57 44.0072C111.244 43.9692 108.917 43.9939 106.59 43.9901C106.282 43.9901 105.974 43.9635 105.488 43.9408C105.762 43.5139 105.943 43.2009 106.152 42.9049C109.5 38.1697 112.839 33.4268 116.217 28.7124C116.654 28.0997 116.679 27.6937 116.239 27.06C113.057 22.4784 109.921 17.8665 106.773 13.2621C106.567 12.9605 106.378 12.6456 106.062 12.1542C107.309 12.1542 108.345 12.1542 109.38 12.1542C111.005 12.1542 112.631 12.1865 114.256 12.139C114.916 12.1201 115.293 12.3553 115.641 12.8922C118.209 16.8534 120.806 20.7957 123.395 24.7417C123.579 25.0225 123.782 25.2919 124.201 25.5233C124.201 25.1951 124.201 24.8669 124.201 24.5387C124.201 20.7445 124.22 16.9502 124.185 13.1578C124.178 12.3762 124.411 12.1163 125.212 12.1371C127.188 12.1884 129.165 12.1865 131.139 12.1371C131.936 12.1163 132.181 12.3762 132.173 13.1597C132.141 16.954 132.158 20.7482 132.162 24.5406C132.162 24.8707 132.192 25.2008 132.221 25.787C132.575 25.2843 132.781 25.0111 132.967 24.7284C135.539 20.8071 138.124 16.8952 140.666 12.9548C141.062 12.342 141.49 12.122 142.213 12.1371C144.538 12.1808 146.866 12.1542 149.193 12.1542C149.503 12.1542 149.813 12.1542 150.337 12.1542C150.044 12.6247 149.868 12.9377 149.663 13.2337C146.502 17.8286 143.351 22.431 140.157 27.0031C139.702 27.6538 139.694 28.0921 140.167 28.7447C143.542 33.423 146.873 38.1317 150.216 42.8328C150.438 43.1383 150.637 43.4532 151 43.9939Z" fill="black"/>
<path d="M57.1073 44.3646C57.1073 38.3602 57.1073 32.5056 57.1073 26.3646C56.6598 26.8806 56.394 27.1766 56.1396 27.482C51.6685 32.8357 47.1898 38.1857 42.7417 43.5584C42.2502 44.1522 41.7492 44.4253 40.9671 44.3893C39.6322 44.3286 38.2898 44.3267 36.955 44.3893C36.1269 44.4291 35.863 44.192 35.8687 43.3383C35.9089 38.3128 35.8879 33.2872 35.8879 28.2617C35.8879 23.4582 35.8879 18.6527 35.8879 13.8492C35.8879 13.4716 35.8879 13.096 35.8879 12.6065C36.2531 12.58 36.5553 12.5382 36.8574 12.5382C38.896 12.5325 40.9365 12.5724 42.975 12.5174C43.7973 12.4946 43.9847 12.7906 43.9809 13.5532C43.9522 18.7684 43.9656 23.9837 43.9675 29.1989C43.9675 29.5404 43.9675 29.8819 43.9675 30.5212C44.3615 30.0887 44.589 29.8591 44.7975 29.6106C49.3297 24.1829 53.8677 18.7609 58.3809 13.318C58.8475 12.7545 59.3218 12.487 60.0714 12.5193C61.4062 12.5781 62.7487 12.5857 64.0835 12.5174C64.9593 12.4718 65.2156 12.7526 65.2118 13.6253C65.1812 22.1909 65.1946 30.7565 65.1946 39.322C65.1946 40.7449 65.2213 42.1678 65.1678 43.5887C65.1582 43.8543 64.8255 44.3305 64.6342 44.3343C62.1807 44.3817 59.7329 44.3646 57.1073 44.3646Z" fill="black"/>
<path d="M0 36.9349C2.30246 35.6145 4.55712 34.3226 6.84811 33.0098C9.19265 36.8875 12.7133 37.9025 16.8898 37.0677C19.5059 36.546 21.9021 34.3245 22.3859 32.1959C21.9996 32.175 21.6325 32.139 21.2634 32.1371C18.4599 32.1314 15.6545 32.0915 12.851 32.156C11.847 32.1788 11.606 31.8354 11.6481 30.9058C11.7189 29.3293 11.6672 27.7452 11.6672 26.1649C11.6672 24.7553 11.6691 24.7515 13.0479 24.7515C15.7883 24.7496 18.5287 24.7534 21.2691 24.7477C21.6382 24.7477 22.0054 24.7155 22.5561 24.6889C21.3246 22.0538 19.4639 20.4241 16.7961 19.7848C12.9026 18.8495 9.95758 20.0542 6.88827 23.8124C4.63935 22.5224 2.3694 21.2209 0.118565 19.929C1.92191 14.6455 10.2636 10.7696 17.4023 11.8168C25.7134 13.0348 31.133 19.172 31.4581 27.7338C31.7813 36.2709 26.7633 43.1405 18.9112 44.7891C9.20603 46.8247 2.27569 41.8846 0 36.9349Z" fill="black"/>
<path d="M71.6275 39.9699C71.5874 39.7916 71.5243 39.6398 71.5243 39.4899C71.5587 34.6238 71.3732 29.7424 71.6926 24.8933C72.2395 16.5744 80.279 9.92301 88.6837 10.5358C97.3352 11.1656 103.803 17.8625 104.099 26.5799C104.174 28.754 104.202 30.9566 103.95 33.1098C103.491 36.999 99.6491 40.1729 95.79 39.9623C95.7728 39.6151 95.7403 39.2528 95.7384 38.8904C95.7346 34.9064 95.7652 30.9243 95.725 26.9403C95.6848 22.871 92.8775 19.5339 89.0739 18.9382C84.2968 18.1907 80.0533 21.7156 79.9233 26.5723C79.8736 28.4353 79.9462 30.304 79.8946 32.167C79.7799 36.1984 76.3472 39.7233 72.3122 40.0021C72.0922 40.0173 71.8723 39.9832 71.6275 39.9699Z" fill="black"/>
<path d="M68.4801 50.5904C68.1837 47.3007 70.8437 43.8157 74.3319 42.9069C75.0911 42.7096 75.9038 42.6262 76.6917 42.6243C84.8134 42.6034 92.9352 42.6281 101.055 42.5901C102.034 42.5863 102.306 42.8747 102.269 43.8252C102.195 45.7185 102.25 47.6156 102.244 49.5109C102.244 49.8505 102.216 50.1901 102.199 50.5885C90.9329 50.5904 79.74 50.5904 68.4801 50.5904Z" fill="black"/>
<path d="M56.386 5.23421C56.3937 8.16718 54.0969 10.4722 51.1462 10.495C48.1916 10.5177 45.8337 8.22789 45.8165 5.32337C45.8012 2.35245 48.14 -0.00189599 51.106 1.14573e-06C54.0338 0.00189828 56.3803 2.32589 56.386 5.23421Z" fill="black"/>
</svg>
